<svg width="199" height="168" viewBox="0 0 199 168" fill="none" xmlns="http://www.w3.org/2000/svg">
<path d="M186.464 31.8171C189.405 28.8632 191.227 24.7927 191.227 20.3047V17.1953C191.227 8.19406 183.904 0.871094 174.902 0.871094C165.901 0.871094 158.578 8.19406 158.578 17.1953V20.3047C158.578 24.7935 160.4 28.864 163.342 31.8183C156.962 35.3218 152.329 41.6261 151.118 49.0664H133.314C126.885 49.0664 121.654 54.2972 121.654 60.7266C121.654 62.0892 121.891 63.3967 122.323 64.6133H76.6772C77.1086 63.3967 77.3457 62.0892 77.3457 60.7266C77.3457 54.2972 72.115 49.0664 65.6855 49.0664H47.882C46.6706 41.6261 42.0376 35.3214 35.6583 31.8183C38.6002 28.864 40.4219 24.7935 40.4219 20.3047V17.1953C40.4219 8.19406 33.0989 0.871094 24.0977 0.871094C15.0964 0.871094 7.77344 8.19406 7.77344 17.1953V20.3047C7.77344 24.7927 9.59475 28.8632 12.5358 31.8171C5.07178 35.9165 0 43.8528 0 52.9531V91.8203V96.5493C0 108.729 9.90919 118.639 22.0894 118.639H52.8594V155.757C52.8594 157.334 53.1625 158.841 53.7078 160.227H38.3491C36.2028 160.227 34.4624 161.967 34.4624 164.113C34.4624 166.26 36.2028 168 38.3491 168H177.364C179.51 168 181.251 166.26 181.251 164.113C181.251 161.967 179.51 160.227 177.364 160.227H145.292C145.837 158.841 146.141 157.334 146.141 155.757V151.287C146.141 149.141 144.4 147.4 142.254 147.4C140.108 147.4 138.367 149.141 138.367 151.287V155.757C138.367 158.221 136.362 160.227 133.897 160.227C131.433 160.227 129.428 158.221 129.428 155.757V106.687C129.428 100.633 134.353 95.707 140.408 95.707H154.691H157.801H191.227V96.5493C191.227 104.443 184.805 110.865 176.911 110.865H142.254C140.108 110.865 138.367 112.606 138.367 114.752V120.971C138.367 123.117 140.108 124.857 142.254 124.857C144.4 124.857 146.141 123.117 146.141 120.971V118.639H176.911C189.091 118.639 199 108.729 199 96.5493V91.8203V52.9531C199 43.8528 193.928 35.9165 186.464 31.8171ZM166.352 17.1953C166.352 12.4803 170.187 8.64453 174.902 8.64453C179.617 8.64453 183.453 12.4803 183.453 17.1953V20.3047C183.453 25.0197 179.617 28.8555 174.902 28.8555C170.187 28.8555 166.352 25.0197 166.352 20.3047V17.1953ZM15.5469 17.1953C15.5469 12.4803 19.3827 8.64453 24.0977 8.64453C28.8126 8.64453 32.6484 12.4803 32.6484 17.1953V20.3047C32.6484 25.0197 28.8126 28.8555 24.0977 28.8555C19.3827 28.8555 15.5469 25.0197 15.5469 20.3047V17.1953ZM7.77344 52.9531C7.77344 43.9519 15.0964 36.6289 24.0977 36.6289C33.0989 36.6289 40.4219 43.9519 40.4219 52.9531C40.4219 55.0994 42.1623 56.8398 44.3086 56.8398H65.6855C67.8287 56.8398 69.5723 58.5834 69.5723 60.7266C69.5723 62.8697 67.8287 64.6133 65.6855 64.6133H43.0512C36.8714 64.6133 31.2197 61.2291 28.3011 55.7815C27.2879 53.8894 24.9317 53.177 23.0397 54.191C21.1476 55.2043 20.4356 57.5601 21.4492 59.4525C25.3402 66.7156 32.5493 71.4741 40.6391 72.2686C40.4984 72.6705 40.4219 73.103 40.4219 73.5527V87.9336H7.77344V52.9531ZM55.7286 87.9336H48.1953V73.5527C48.1953 73.1466 48.1331 72.7548 48.0173 72.3867H55.7286C54.4012 74.6752 53.6367 77.3295 53.6367 80.1602C53.6367 82.9909 54.4008 85.6451 55.7286 87.9336ZM69.5723 155.757C69.5723 158.221 67.5671 160.227 65.1025 160.227C62.638 160.227 60.6328 158.221 60.6328 155.757V114.752C60.6328 112.606 58.8923 110.865 56.7461 110.865H22.0894C14.1955 110.865 7.77344 104.443 7.77344 96.5493V95.707H41.1992H44.3086H58.5923C64.6466 95.707 69.5723 100.633 69.5723 106.687V155.757ZM87.8398 160.227H76.4972C77.0429 158.841 77.3457 157.334 77.3457 155.757V106.687C77.3457 102.589 76.0207 98.7962 73.7812 95.707H87.8398V160.227ZM103.387 160.227H95.6133V95.707H103.387V160.227ZM122.503 160.227H111.16V95.707H125.219C122.98 98.7962 121.654 102.589 121.654 106.687V155.757C121.654 157.334 121.957 158.841 122.503 160.227ZM129.816 87.9336H69.1836C64.8973 87.9336 61.4102 84.4464 61.4102 80.1602C61.4102 75.8739 64.8973 72.3867 69.1836 72.3867H129.816C134.103 72.3867 137.59 75.8739 137.59 80.1602C137.59 84.4464 134.103 87.9336 129.816 87.9336ZM150.805 73.5527V87.9336H143.271C144.599 85.6451 145.363 82.9909 145.363 80.1602C145.363 77.3295 144.599 74.6752 143.271 72.3867H150.983C150.867 72.7548 150.805 73.1466 150.805 73.5527ZM191.227 87.9336H158.578V73.5527C158.578 73.103 158.502 72.6705 158.361 72.2686C166.451 71.4741 173.66 66.7156 177.551 59.4525C178.564 57.5601 177.852 55.2043 175.96 54.191C174.067 53.1774 171.713 53.8902 170.699 55.7815C167.78 61.2291 162.129 64.6133 155.949 64.6133H133.314C131.171 64.6133 129.428 62.8697 129.428 60.7266C129.428 58.5834 131.171 56.8398 133.314 56.8398H154.691C156.838 56.8398 158.578 55.0994 158.578 52.9531C158.578 43.9519 165.901 36.6289 174.902 36.6289C183.904 36.6289 191.227 43.9519 191.227 52.9531V87.9336Z" fill="#FE043C"/>
</svg>
